<?xml version="1.0" encoding="UTF-8"?>
<!DOCTYPE svg PUBLIC "-//W3C//DTD SVG 1.1//EN" "http://www.w3.org/Graphics/SVG/1.1/DTD/svg11.dtd">
<svg xmlns="http://www.w3.org/2000/svg" version="1.1" width="593px" height="590px" style="shape-rendering:geometricPrecision; text-rendering:geometricPrecision; image-rendering:optimizeQuality; fill-rule:evenodd; clip-rule:evenodd" xmlns:xlink="http://www.w3.org/1999/xlink">
<g><path style="opacity:1" fill="#fefefe" d="M -0.5,-0.5 C 197.167,-0.5 394.833,-0.5 592.5,-0.5C 592.5,196.167 592.5,392.833 592.5,589.5C 394.833,589.5 197.167,589.5 -0.5,589.5C -0.5,392.833 -0.5,196.167 -0.5,-0.5 Z"/></g>
<g><path style="opacity:1" fill="#174b8b" d="M 29.5,309.5 C 29.3523,294.152 29.6856,278.819 30.5,263.5C 45.6853,163.485 99.352,92.6516 191.5,51C 272.082,20.1602 350.082,25.4936 425.5,67C 501.573,113.581 545.073,181.414 556,270.5C 561.591,360.122 531.424,434.955 465.5,495C 394.933,552.887 314.933,571.554 225.5,551C 139.031,525.531 78.8646,471.031 45,387.5C 35.6447,362.376 30.478,336.376 29.5,309.5 Z"/></g>
<g><path style="opacity:1" fill="#f5f7f8" d="M 487.5,155.5 C 496.38,154.612 498.88,158.279 495,166.5C 491.362,169.727 487.862,173.06 484.5,176.5C 488.568,177.953 492.068,180.286 495,183.5C 495.814,185.902 495.647,188.235 494.5,190.5C 489.823,186.911 484.656,184.244 479,182.5C 474.024,183.937 469.191,185.77 464.5,188C 456.735,189.537 450.568,187.037 446,180.5C 445.37,178.097 446.203,176.263 448.5,175C 451.753,173.964 455.086,173.297 458.5,173C 456.439,170.376 454.773,167.542 453.5,164.5C 454.261,159.197 456.928,157.697 461.5,160C 464.711,163.042 467.711,166.209 470.5,169.5C 476.211,164.78 481.877,160.114 487.5,155.5 Z"/></g>
<g><path style="opacity:1" fill="#fdfdfd" d="M 277.5,114.5 C 355.507,112.403 414.007,144.737 453,211.5C 485.048,278.958 479.715,343.291 437,404.5C 394.63,456.591 339.796,480.091 272.5,475C 212.507,466.785 167.007,436.952 136,385.5C 104.151,326.758 103.484,267.758 134,208.5C 166.239,153.458 214.072,122.125 277.5,114.5 Z"/></g>
<g><path style="opacity:1" fill="#edf2f4" d="M 197.5,68.5 C 198.496,68.4142 199.329,68.7476 200,69.5C 200.631,73.8574 200.465,78.1907 199.5,82.5C 200.766,87.2959 202.432,91.9626 204.5,96.5C 205.5,97.8333 206.5,97.8333 207.5,96.5C 208.5,93.1663 209.5,89.833 210.5,86.5C 211.773,92.6783 211.773,98.845 210.5,105C 212.242,109.813 214.242,114.48 216.5,119C 216.355,119.772 216.022,120.439 215.5,121C 210.32,122.472 208.987,121.139 211.5,117C 210.527,114.88 209.194,113.047 207.5,111.5C 205.347,113.794 203.68,116.46 202.5,119.5C 201.998,120.521 201.332,120.688 200.5,120C 199.283,118.352 198.45,116.519 198,114.5C 197.827,110.459 197.327,106.459 196.5,102.5C 194.833,103.833 193.167,105.167 191.5,106.5C 189.744,104.809 189.244,102.809 190,100.5C 191.513,97.4756 193.513,94.8089 196,92.5C 196.322,87.4422 195.822,82.4422 194.5,77.5C 194.653,74.1995 195.653,71.1995 197.5,68.5 Z"/></g>
<g><path style="opacity:1" fill="#252e50" d="M 202.5,102.5 C 204.225,102.843 204.725,103.843 204,105.5C 202.961,104.756 202.461,103.756 202.5,102.5 Z"/></g>
<g><path style="opacity:1" fill="#f4f6f7" d="M 365.5,63.5 C 371.103,66.3073 371.936,70.3073 368,75.5C 364.379,77.3976 361.212,79.8976 358.5,83C 365.413,81.5083 372.413,81.0083 379.5,81.5C 381.715,76.294 384.715,71.6273 388.5,67.5C 389.72,67.8869 390.387,68.7202 390.5,70C 388.108,74.2747 386.441,78.7747 385.5,83.5C 389.529,83.8514 393.362,83.1848 397,81.5C 397.5,81.6667 398,81.8333 398.5,82C 394.945,89.5874 388.945,92.7541 380.5,91.5C 380.281,92.675 380.614,93.675 381.5,94.5C 383.547,95.1847 385.214,96.3514 386.5,98C 384.798,103.243 381.965,107.743 378,111.5C 378.711,120.756 382.544,128.59 389.5,135C 382.025,135.185 375.525,132.685 370,127.5C 368.335,124.487 367.168,121.32 366.5,118C 358.018,117.795 351.351,114.295 346.5,107.5C 348.096,104.544 349.596,101.544 351,98.5C 351.689,97.6433 352.522,96.9767 353.5,96.5C 353.926,100.54 355.259,104.207 357.5,107.5C 358.689,108.429 360.022,108.762 361.5,108.5C 361.191,104.039 359.858,99.8721 357.5,96C 358.187,94.8382 358.353,93.6716 358,92.5C 355.455,93.5218 352.955,94.6884 350.5,96C 348.428,99.9882 345.762,103.488 342.5,106.5C 340.483,105.826 338.817,104.659 337.5,103C 329.416,103.628 327.416,100.462 331.5,93.5C 345.206,92.3069 351.372,84.9735 350,71.5C 351.851,73.3365 354.017,74.1698 356.5,74C 358.646,69.6933 361.646,66.1933 365.5,63.5 Z"/></g>
<g><path style="opacity:1" fill="#183779" d="M 372.5,100.5 C 375.5,100.167 376.833,101.5 376.5,104.5C 370.96,106.614 369.627,105.28 372.5,100.5 Z"/></g>
<g><path style="opacity:1" fill="#233b73" d="M 363.5,87.5 C 367.126,86.8607 368.959,88.194 369,91.5C 366.075,92.1197 364.242,90.7864 363.5,87.5 Z"/></g>
<g><path style="opacity:1" fill="#f3f6f6" d="M 216.5,60.5 C 218.179,60.8923 219.846,61.3923 221.5,62C 223.182,64.6901 224.682,67.5234 226,70.5C 229.522,73.2659 232.855,76.2659 236,79.5C 236.592,82.6944 236.426,85.8611 235.5,89C 237.471,98.1628 239.471,107.329 241.5,116.5C 241.333,117.167 241.167,117.833 241,118.5C 235.906,113.314 232.073,107.314 229.5,100.5C 228.5,100.167 227.5,99.8333 226.5,99.5C 223.822,100.175 221.156,100.842 218.5,101.5C 218.328,97.466 217.828,93.466 217,89.5C 214.118,86.7072 212.618,83.2072 212.5,79C 214.829,76.3419 217.495,74.0086 220.5,72C 219.006,68.1883 217.673,64.355 216.5,60.5 Z"/></g>
<g><path style="opacity:1" fill="#0d2969" d="M 222.5,89.5 C 223.5,89.5 224.5,89.5 225.5,89.5C 225.778,91.3464 225.111,92.6798 223.5,93.5C 222.571,92.3112 222.238,90.9778 222.5,89.5 Z"/></g>
<g><path style="opacity:1" fill="#26366f" d="M 218.5,80.5 C 219.833,80.5 221.167,80.5 222.5,80.5C 222.5,81.5 222.5,82.5 222.5,83.5C 220.027,83.9118 218.694,82.9118 218.5,80.5 Z"/></g>
<g><path style="opacity:1" fill="#f5f8f8" d="M 92.5,155.5 C 96.1309,155.16 99.4642,155.994 102.5,158C 107.01,163.342 111.677,168.508 116.5,173.5C 120.99,168.841 125.323,164.008 129.5,159C 131.134,158.506 132.801,158.34 134.5,158.5C 133.865,161.493 133.699,164.493 134,167.5C 137,171.833 140.667,175.5 145,178.5C 145.657,188.518 141.99,196.518 134,202.5C 130.773,201.136 127.606,199.636 124.5,198C 120.5,197.667 116.5,197.333 112.5,197C 111.692,196.692 111.025,196.192 110.5,195.5C 111.973,191.221 113.973,187.221 116.5,183.5C 111.01,178.843 106.01,173.676 101.5,168C 97.0764,167.82 92.7431,167.653 88.5,167.5C 87.4557,165.232 87.289,162.899 88,160.5C 89.7073,158.963 91.2073,157.296 92.5,155.5 Z"/></g>
<g><path style="opacity:1" fill="#1e4886" d="M 126.5,179.5 C 131.637,180.295 134.971,183.295 136.5,188.5C 136.023,189.478 135.357,190.311 134.5,191C 120.849,194.527 118.182,190.694 126.5,179.5 Z"/></g>
<g><path style="opacity:1" fill="#f4f7f7" d="M 463.5,190.5 C 468.116,191.678 470.95,194.678 472,199.5C 472.667,202.833 472.667,206.167 472,209.5C 471.481,210.516 470.647,211.182 469.5,211.5C 467.272,210.781 465.439,209.448 464,207.5C 463.501,201.843 463.334,196.176 463.5,190.5 Z"/></g>
<g><path style="opacity:1" fill="#e57719" d="M 313.5,215.5 C 326.973,227.808 339.639,240.974 351.5,255C 347.946,256.028 344.446,257.195 341,258.5C 339.373,258.375 337.873,257.875 336.5,257C 330.81,250.312 324.81,243.978 318.5,238C 313.667,233.833 308.833,229.667 304,225.5C 303.536,224.906 303.369,224.239 303.5,223.5C 305.918,219.755 309.251,217.088 313.5,215.5 Z"/></g>
<g><path style="opacity:1" fill="#261669" d="M 387.5,188.5 C 380.783,187.281 374.117,187.614 367.5,189.5C 347.606,194.449 329.606,203.115 313.5,215.5C 309.251,217.088 305.918,219.755 303.5,223.5C 292.422,231.41 282.756,240.91 274.5,252C 268.122,252.314 261.789,251.814 255.5,250.5C 260.981,243.186 267.314,236.686 274.5,231C 280.902,226.146 287.235,221.313 293.5,216.5C 297.508,214.163 301.508,211.83 305.5,209.5C 322.436,199.873 340.436,192.706 359.5,188C 373.11,184.09 386.443,184.756 399.5,190C 406.262,194.095 410.762,199.928 413,207.5C 414.534,225.719 411.368,243.053 403.5,259.5C 400.299,257.134 397.633,254.3 395.5,251C 400.008,240.478 403.508,229.644 406,218.5C 409.165,202.461 402.998,192.461 387.5,188.5 Z"/></g>
<g><path style="opacity:1" fill="#b3b0c9" d="M 387.5,188.5 C 380.826,188.713 374.159,189.046 367.5,189.5C 374.117,187.614 380.783,187.281 387.5,188.5 Z"/></g>
<g><path style="opacity:1" fill="#da914e" d="M 250.5,259.5 C 244.131,259.347 237.797,259.68 231.5,260.5C 234.865,258.961 238.531,258.294 242.5,258.5C 245.355,258.503 248.022,258.836 250.5,259.5 Z"/></g>
<g><path style="opacity:1" fill="#bcb9c8" d="M 337.5,271.5 C 350.99,270.504 364.656,270.171 378.5,270.5C 378.5,273.167 378.5,275.833 378.5,278.5C 373.167,278.5 367.833,278.5 362.5,278.5C 362.829,292.01 362.496,305.344 361.5,318.5C 361.5,305.5 361.5,292.5 361.5,279.5C 361.328,278.508 361.662,277.842 362.5,277.5C 367.5,277.5 372.5,277.5 377.5,277.5C 377.5,275.5 377.5,273.5 377.5,271.5C 364.167,271.5 350.833,271.5 337.5,271.5 Z"/></g>
<g><path style="opacity:1" fill="#110453" d="M 337.5,271.5 C 350.833,271.5 364.167,271.5 377.5,271.5C 377.5,273.5 377.5,275.5 377.5,277.5C 372.5,277.5 367.5,277.5 362.5,277.5C 366.97,276.514 371.637,276.181 376.5,276.5C 376.5,275.167 376.5,273.833 376.5,272.5C 364.167,272.5 351.833,272.5 339.5,272.5C 339.5,273.833 339.5,275.167 339.5,276.5C 344.833,276.5 350.167,276.5 355.5,276.5C 355.5,290.167 355.5,303.833 355.5,317.5C 357.144,317.714 358.644,317.38 360,316.5C 360.169,303.993 360.669,291.66 361.5,279.5C 361.5,292.5 361.5,305.5 361.5,318.5C 359.167,318.5 356.833,318.5 354.5,318.5C 354.5,304.833 354.5,291.167 354.5,277.5C 348.833,277.5 343.167,277.5 337.5,277.5C 337.5,275.5 337.5,273.5 337.5,271.5 Z"/></g>
<g><path style="opacity:1" fill="#26156f" d="M 362.5,277.5 C 361.662,277.842 361.328,278.508 361.5,279.5C 360.669,291.66 360.169,303.993 360,316.5C 358.644,317.38 357.144,317.714 355.5,317.5C 355.5,303.833 355.5,290.167 355.5,276.5C 350.167,276.5 344.833,276.5 339.5,276.5C 339.5,275.167 339.5,273.833 339.5,272.5C 351.833,272.5 364.167,272.5 376.5,272.5C 376.5,273.833 376.5,275.167 376.5,276.5C 371.637,276.181 366.97,276.514 362.5,277.5 Z"/></g>
<g><path style="opacity:1" fill="#ebf0f2" d="M 531.5,271.5 C 533.527,271.338 535.527,271.505 537.5,272C 540.215,275.72 539.215,278.387 534.5,280C 532.187,280.662 529.854,281.162 527.5,281.5C 527.862,277.741 529.195,274.407 531.5,271.5 Z"/></g>
<g><path style="opacity:1" fill="#9b98bb" d="M 159.5,272.5 C 156.5,272.5 153.5,272.5 150.5,272.5C 150.5,282.833 150.5,293.167 150.5,303.5C 149.506,293.013 149.172,282.346 149.5,271.5C 153.042,271.187 156.375,271.521 159.5,272.5 Z"/></g>
<g><path style="opacity:1" fill="#605589" d="M 197.5,272.5 C 194.833,272.5 192.167,272.5 189.5,272.5C 189.827,282.015 189.494,291.348 188.5,300.5C 188.5,290.833 188.5,281.167 188.5,271.5C 191.713,271.19 194.713,271.523 197.5,272.5 Z"/></g>
<g><path style="opacity:1" fill="#e5781a" d="M 305.5,209.5 C 301.508,211.83 297.508,214.163 293.5,216.5C 277.462,203.318 259.462,193.818 239.5,188C 219.348,184.839 206.515,193.006 201,212.5C 199.044,233.053 202.377,252.719 211,271.5C 211.689,272.357 212.522,273.023 213.5,273.5C 218.393,267.603 224.393,263.269 231.5,260.5C 237.797,259.68 244.131,259.347 250.5,259.5C 269.985,265.115 279.152,278.115 278,298.5C 275.706,310.753 269.206,320.087 258.5,326.5C 272.625,339.638 287.292,351.971 302.5,363.5C 301.05,365.61 299.05,366.943 296.5,367.5C 279.435,356.941 263.769,344.441 249.5,330C 229.157,331.265 215.657,322.432 209,303.5C 206.862,296.352 207.029,289.352 209.5,282.5C 206.939,277.045 204.105,271.712 201,266.5C 198.667,260.167 196.333,253.833 194,247.5C 186.489,222.101 192.655,200.934 212.5,184C 222.219,178.992 232.552,177.325 243.5,179C 266.719,184.11 287.386,194.277 305.5,209.5 Z"/></g>
<g><path style="opacity:1" fill="#a8a4c2" d="M 337.5,277.5 C 343.167,277.5 348.833,277.5 354.5,277.5C 354.5,291.167 354.5,304.833 354.5,318.5C 353.504,305.344 353.171,292.01 353.5,278.5C 347.974,278.821 342.64,278.488 337.5,277.5 Z"/></g>
<g><path style="opacity:1" fill="#6a668c" d="M 427.5,281.5 C 428.451,282.919 428.784,284.585 428.5,286.5C 425.941,286.802 423.607,286.468 421.5,285.5C 423.5,285.5 425.5,285.5 427.5,285.5C 427.5,284.167 427.5,282.833 427.5,281.5 Z"/></g>
<g><path style="opacity:1" fill="#f7fbf9" d="M 535.5,283.5 C 541.793,284.298 542.126,286.298 536.5,289.5C 534.261,287.867 533.928,285.867 535.5,283.5 Z"/></g>
<g><path style="opacity:1" fill="#fafaf4" d="M 235.5,269.5 C 254.221,267.885 263.221,276.552 262.5,295.5C 251.833,295.5 241.167,295.5 230.5,295.5C 231.952,310.238 238.952,313.571 251.5,305.5C 252.95,304.15 253.617,302.484 253.5,300.5C 256.167,300.5 258.833,300.5 261.5,300.5C 261.049,305.124 259.049,308.957 255.5,312C 245.776,317.068 236.442,316.568 227.5,310.5C 225.188,307.543 223.688,304.209 223,300.5C 219.685,286.909 223.852,276.576 235.5,269.5 Z"/></g>
<g><path style="opacity:1" fill="#e57617" d="M 253.5,284.5 C 253.5,285.833 253.5,287.167 253.5,288.5C 246.167,288.5 238.833,288.5 231.5,288.5C 231.5,287.167 231.5,285.833 231.5,284.5C 234.621,277.72 239.955,275.22 247.5,277C 250.468,278.793 252.468,281.293 253.5,284.5 Z"/></g>
<g><path style="opacity:1" fill="#f5f7f8" d="M 71.5,275.5 C 74.9683,279.141 78.3016,282.974 81.5,287C 88.7873,287.62 92.6207,291.453 93,298.5C 94.0062,301.89 96.0062,302.89 99,301.5C 99.5935,295.825 100.26,290.158 101,284.5C 103,281.833 105,281.833 107,284.5C 108.718,292.911 107.218,300.745 102.5,308C 97.8742,308.982 93.2076,309.816 88.5,310.5C 87.081,312.336 85.9143,314.336 85,316.5C 79.8278,317.502 74.9944,316.502 70.5,313.5C 73.0795,312.451 75.7462,311.784 78.5,311.5C 78.7135,309.856 78.3802,308.356 77.5,307C 72.909,305.947 68.2424,305.114 63.5,304.5C 58.6815,300.182 54.0148,295.682 49.5,291C 46.9556,289.908 44.2889,289.241 41.5,289C 42.8333,287.667 44.1667,286.333 45.5,285C 50.1667,284.667 54.8333,284.333 59.5,284C 63.6803,281.304 67.6803,278.47 71.5,275.5 Z"/></g>
<g><path style="opacity:1" fill="#204783" d="M 64.5,283.5 C 71.5706,282.583 75.2373,285.583 75.5,292.5C 70.9681,292.403 66.6347,291.403 62.5,289.5C 62.1667,289 61.8333,288.5 61.5,288C 62.3146,286.357 63.3146,284.857 64.5,283.5 Z"/></g>
<g><path style="opacity:1" fill="#d59962" d="M 231.5,284.5 C 231.5,285.833 231.5,287.167 231.5,288.5C 238.833,288.5 246.167,288.5 253.5,288.5C 253.5,287.167 253.5,285.833 253.5,284.5C 254.451,285.919 254.784,287.585 254.5,289.5C 246.5,289.5 238.5,289.5 230.5,289.5C 230.216,287.585 230.549,285.919 231.5,284.5 Z"/></g>
<g><path style="opacity:1" fill="#f1f4f5" d="M 507.5,270.5 C 514.678,270.675 519.845,274.008 523,280.5C 524.674,285.213 526.34,289.88 528,294.5C 529.552,299.125 528.219,302.458 524,304.5C 522.941,304.37 522.108,303.87 521.5,303C 515.5,302.333 509.5,302.333 503.5,303C 505.359,305.938 506.192,309.105 506,312.5C 504.211,314.229 502.044,314.896 499.5,314.5C 499.101,311.304 498.101,308.304 496.5,305.5C 486.302,308.974 481.636,305.307 482.5,294.5C 482.835,291.06 484.668,288.727 488,287.5C 494.046,274.884 497.38,275.551 498,289.5C 499.833,291.333 501.667,293.167 503.5,295C 506.167,295.667 508.833,295.667 511.5,295C 509.129,292.294 506.463,289.961 503.5,288C 506.431,286.09 509.431,286.09 512.5,288C 514.683,290.35 517.016,292.517 519.5,294.5C 520.314,292.048 519.814,289.715 518,287.5C 514.253,283.082 509.92,279.416 505,276.5C 504.833,275.833 504.667,275.167 504.5,274.5C 505.286,272.959 506.286,271.626 507.5,270.5 Z"/></g>
<g><path style="opacity:1" fill="#213c78" d="M 489.5,291.5 C 493.352,292.187 495.019,294.521 494.5,298.5C 490.2,298.185 488.533,295.851 489.5,291.5 Z"/></g>
<g><path style="opacity:1" fill="#355282" d="M 30.5,263.5 C 29.6856,278.819 29.3523,294.152 29.5,309.5C 28.8338,303.342 28.5004,297.009 28.5,290.5C 28.3054,281.281 28.972,272.281 30.5,263.5 Z"/></g>
<g><path style="opacity:1" fill="#f0f4f5" d="M 535.5,295.5 C 540.397,296.879 545.397,297.879 550.5,298.5C 550.832,305.843 547.499,308.843 540.5,307.5C 538.052,303.822 536.385,299.822 535.5,295.5 Z"/></g>
<g><path style="opacity:1" fill="#251468" d="M 159.5,272.5 C 159.333,283.172 159.5,293.839 160,304.5C 161.167,308.333 163.667,310.833 167.5,312C 174.212,313.432 180.379,312.265 186,308.5C 187.341,305.978 188.174,303.311 188.5,300.5C 189.494,291.348 189.827,282.015 189.5,272.5C 192.167,272.5 194.833,272.5 197.5,272.5C 197.667,283.505 197.5,294.505 197,305.5C 193.678,313.753 187.511,317.919 178.5,318C 168.871,319.968 160.371,317.801 153,311.5C 151.659,308.978 150.826,306.311 150.5,303.5C 150.5,293.167 150.5,282.833 150.5,272.5C 153.5,272.5 156.5,272.5 159.5,272.5 Z"/></g>
<g><path style="opacity:1" fill="#261769" d="M 427.5,281.5 C 427.5,282.833 427.5,284.167 427.5,285.5C 425.5,285.5 423.5,285.5 421.5,285.5C 416.961,276.816 409.961,274.316 400.5,278C 392.045,286.095 390.212,295.595 395,306.5C 400.773,313.972 407.94,315.472 416.5,311C 419.653,308.195 421.319,304.695 421.5,300.5C 424.167,300.5 426.833,300.5 429.5,300.5C 425.805,315.695 416.139,321.862 400.5,319C 391.823,316.321 386.657,310.488 385,301.5C 382.573,288.76 386.74,278.927 397.5,272C 406.693,269.224 415.36,270.224 423.5,275C 425.232,276.972 426.565,279.139 427.5,281.5 Z"/></g>
<g><path style="opacity:1" fill="#251667" d="M 302.5,270.5 C 310.169,269.817 317.502,270.984 324.5,274C 327.71,277.127 329.043,280.961 328.5,285.5C 326.167,285.5 323.833,285.5 321.5,285.5C 321.896,282.956 321.229,280.789 319.5,279C 313.186,275.515 307.02,275.682 301,279.5C 300.333,282.167 300.333,284.833 301,287.5C 307.554,290.214 314.387,292.047 321.5,293C 329.23,295.959 332.063,301.459 330,309.5C 327.312,315.771 322.479,318.937 315.5,319C 305.982,321.493 298.148,318.993 292,311.5C 291.047,308.568 290.547,305.568 290.5,302.5C 292.857,302.337 295.19,302.503 297.5,303C 300.466,313.095 307.133,316.428 317.5,313C 323.516,310.727 324.849,306.894 321.5,301.5C 314.795,298.603 307.795,296.77 300.5,296C 293.547,292.59 291.047,287.09 293,279.5C 295.406,275.592 298.572,272.592 302.5,270.5 Z"/></g>
<g><path style="opacity:1" fill="#251669" d="M 311.5,368.5 C 309.223,369.449 307.223,370.782 305.5,372.5C 286.309,385.929 265.309,395.263 242.5,400.5C 240.801,400.66 239.134,400.494 237.5,400C 238.416,399.722 239.082,399.222 239.5,398.5C 261.121,392.531 280.121,382.198 296.5,367.5C 299.05,366.943 301.05,365.61 302.5,363.5C 316.116,352.431 327.783,339.597 337.5,325C 342.948,324.859 348.281,325.692 353.5,327.5C 341.413,343.255 327.413,356.922 311.5,368.5 Z"/></g>
<g><path style="opacity:1" fill="#e4761c" d="M 385.5,328.5 C 389.683,327.189 394.016,327.189 398.5,328.5C 404.282,340.921 407.449,353.921 408,367.5C 402.522,353.194 395.022,340.194 385.5,328.5 Z"/></g>
<g><path style="opacity:1" fill="#27166a" d="M 201.5,381.5 C 201.969,384.393 200.969,386.393 198.5,387.5C 196.222,384.603 194.722,381.27 194,377.5C 193.333,368.833 193.333,360.167 194,351.5C 196.102,341.047 198.769,330.713 202,320.5C 202.423,319.044 203.256,318.544 204.5,319C 206.847,322.011 209.181,325.011 211.5,328C 207.528,337.917 204.361,348.084 202,358.5C 201.5,366.159 201.334,373.826 201.5,381.5 Z"/></g>
<g><path style="opacity:1" fill="#ce7321" d="M 408.5,375.5 C 409.958,380.221 409.458,384.887 407,389.5C 407.983,384.962 408.483,380.295 408.5,375.5 Z"/></g>
<g><path style="opacity:1" fill="#e4781e" d="M 311.5,368.5 C 327.388,379.752 344.721,388.252 363.5,394C 374.376,396.412 385.376,397.078 396.5,396C 398.421,395.64 400.088,394.806 401.5,393.5C 402.711,394.274 402.711,395.107 401.5,396C 389.912,402.501 377.579,404.168 364.5,401C 354.625,398.264 344.958,394.93 335.5,391C 326.865,386.348 318.198,381.681 309.5,377C 307.365,376.124 306.031,374.624 305.5,372.5C 307.223,370.782 309.223,369.449 311.5,368.5 Z"/></g>
<g><path style="opacity:1" fill="#2b1f62" d="M 201.5,381.5 C 203.385,389.893 208.385,395.726 216.5,399C 224.202,399.731 231.869,399.564 239.5,398.5C 239.082,399.222 238.416,399.722 237.5,400C 239.134,400.494 240.801,400.66 242.5,400.5C 233.002,402.875 223.335,403.041 213.5,401C 206.389,398.716 201.389,394.216 198.5,387.5C 200.969,386.393 201.969,384.393 201.5,381.5 Z"/></g>
<g><path style="opacity:1" fill="#f3f5f6" d="M 246.5,494.5 C 250.226,494.177 253.893,494.511 257.5,495.5C 249.291,508.086 240.957,520.586 232.5,533C 228.459,533.827 224.459,533.66 220.5,532.5C 227.538,522.926 234.205,513.093 240.5,503C 239.552,502.517 238.552,502.351 237.5,502.5C 237.58,497.293 240.247,495.126 245.5,496C 246.056,495.617 246.389,495.117 246.5,494.5 Z"/></g>
<g><path style="opacity:1" fill="#f4f7f7" d="M 270.5,493.5 C 285.558,492.38 291.391,499.047 288,513.5C 281.557,528.467 270.39,534.634 254.5,532C 249.609,528.041 249.443,524.208 254,520.5C 256.946,521.786 258.112,524.119 257.5,527.5C 265.534,527.148 271.867,523.648 276.5,517C 266.245,518.414 261.412,513.914 262,503.5C 263.978,499.362 266.811,496.029 270.5,493.5 Z"/></g>
<g><path style="opacity:1" fill="#244683" d="M 272.5,500.5 C 280.782,500.277 283.282,503.944 280,511.5C 277.997,505.709 274.83,505.042 270.5,509.5C 268.616,508.307 268.116,506.641 269,504.5C 270.376,503.295 271.542,501.962 272.5,500.5 Z"/></g>
<g><path style="opacity:1" fill="#f3f6f7" d="M 311.5,496.5 C 319.528,496.169 327.528,496.502 335.5,497.5C 333.486,501.345 330.653,504.345 327,506.5C 326.167,506.167 325.333,505.833 324.5,505.5C 325.641,504.575 325.641,503.741 324.5,503C 320.402,501.853 316.902,502.686 314,505.5C 313.312,506.332 313.479,506.998 314.5,507.5C 322.8,509.761 325.633,515.094 323,523.5C 317.419,535.167 308.919,537.667 297.5,531C 293.284,525.391 293.617,520.058 298.5,515C 304.706,513.76 307.706,516.26 307.5,522.5C 301.176,522.872 301.009,524.205 307,526.5C 314.875,525.64 317.208,521.64 314,514.5C 310.224,512.085 306.057,510.918 301.5,511C 305.054,506.286 308.387,501.453 311.5,496.5 Z"/></g>
<g><path style="opacity:1" fill="#f1f5f5" d="M 355.5,494.5 C 359.514,494.334 363.514,494.501 367.5,495C 374.146,498.543 375.146,503.21 370.5,509C 368.167,509.667 365.833,509.667 363.5,509C 362.62,507.644 362.286,506.144 362.5,504.5C 363.873,504.657 365.207,504.49 366.5,504C 367.451,503.282 367.617,502.449 367,501.5C 359.616,500.453 353.449,502.953 348.5,509C 359.425,507.037 364.258,511.537 363,522.5C 356.739,534.238 348.073,536.571 337,529.5C 333.483,522.664 333.816,515.997 338,509.5C 342.615,502.962 348.448,497.962 355.5,494.5 Z"/></g>
<g><path style="opacity:1" fill="#244582" d="M 343.5,515.5 C 344.828,518.325 346.994,520.325 350,521.5C 350.772,521.355 351.439,521.022 352,520.5C 352.494,518.866 352.66,517.199 352.5,515.5C 358.81,517.642 359.143,520.809 353.5,525C 344.732,528.073 341.399,524.906 343.5,515.5 Z"/></g>
</svg>
